<svg width="1" height="1" viewBox="0 0 1 1" fill="none" xmlns="http://www.w3.org/2000/svg">
<g clip-path="url(#clip0_68_5)">
<mask id="mask0_68_5" style="mask-type:luminance" maskUnits="userSpaceOnUse" x="0" y="0" width="1" height="1">
<path d="M0.150995 0.351407V0.426218L0.0713795 0.505834L0.207275 0.638298V0.29547L0.365134 0.135896V0.796157L0.419355 0.850378V0.0830474L0.498971 0L0.580645 0.0813315V0.840426L0.63315 0.796157V0.137612L0.791009 0.293754V0.640014L0.926905 0.505834L0.842141 0.426218V0.346259L1 0.504118L0.736788 0.76733V0.320865L0.685999 0.266644V0.824983L0.526424 0.982841V0.108785L0.498971 0.0796156L0.47186 0.108785V0.982841L0.31057 0.816404V0.26836L0.261496 0.317433V0.763898L0 0.502402L0.150995 0.351407Z" fill="white"/>
</mask>
<g mask="url(#mask0_68_5)">
<path d="M1 0H0V0.982841H1V0Z" fill="url(#paint0_linear_68_5)"/>
</g>
</g>
<defs>
<linearGradient id="paint0_linear_68_5" x1="-0.165601" y1="0.41361" x2="0.826747" y2="0.41361" gradientUnits="userSpaceOnUse">
<stop stop-color="#C09E6C"/>
<stop offset="1" stop-color="#FAE7BA"/>
</linearGradient>
<clipPath id="clip0_68_5">
<rect width="1" height="0.982841" fill="white"/>
</clipPath>
</defs>
</svg>
