<?xml version="1.0" encoding="UTF-8"?>
<svg id="_圖層_2" data-name="圖層 2" xmlns="http://www.w3.org/2000/svg" xmlns:xlink="http://www.w3.org/1999/xlink" viewBox="0 0 29.14 28.64">
  <defs>
    <style>
      .cls-1 {
        clip-path: url(#clippath);
      }

      .cls-2 {
        fill: none;
      }

      .cls-3 {
        fill: url(#linear-gradient);
      }
    </style>
    <clipPath id="clippath">
      <polygon class="cls-2" points="4.4 10.24 4.4 12.42 2.08 14.74 6.04 18.6 6.04 8.61 10.64 3.96 10.64 23.2 12.22 24.78 12.22 2.42 14.54 0 16.92 2.37 16.92 24.49 18.45 23.2 18.45 4.01 23.05 8.56 23.05 18.65 27.01 14.74 24.54 12.42 24.54 10.09 29.14 14.69 21.47 22.36 21.47 9.35 19.99 7.77 19.99 24.04 15.34 28.64 15.34 3.17 14.54 2.32 13.75 3.17 13.75 28.64 9.05 23.79 9.05 7.82 7.62 9.25 7.62 22.26 0 14.64 4.4 10.24"/>
    </clipPath>
    <linearGradient id="linear-gradient" x1="-1251.88" y1="526.27" x2="-1251.53" y2="526.27" gradientTransform="translate(103425.5 43492.48) scale(82.62 -82.62)" gradientUnits="userSpaceOnUse">
      <stop offset="0" stop-color="#c09e6c"/>
      <stop offset="1" stop-color="#fae7ba"/>
    </linearGradient>
  </defs>
  <g id="_圖層_1-2" data-name="圖層 1">
    <g class="cls-1">
      <rect class="cls-3" width="29.14" height="28.64"/>
    </g>
  </g>
</svg>