<?xml version="1.0" encoding="utf-8"?>
<!-- Generator: Adobe Illustrator 26.5.1, SVG Export Plug-In . SVG Version: 6.00 Build 0)  -->
<svg version="1.1" id="_圖層_2" xmlns="http://www.w3.org/2000/svg" xmlns:xlink="http://www.w3.org/1999/xlink" x="0px" y="0px"
	 viewBox="0 0 147.1 25.8" style="enable-background:new 0 0 147.1 25.8;" xml:space="preserve">
<style type="text/css">
	.st0{clip-path:url(#SVGID_00000035520807930547697330000007479846477415816615_);}
	.st1{fill:url(#SVGID_00000101063862245077288320000016999102794864439431_);}
	.st2{fill:#4D4D4D;}
</style>
<g id="_圖層_8">
	<g>
		<g>
			<defs>
				<polygon id="SVGID_1_" points="3.9,9.1 3.9,11 1.9,13.1 5.4,16.5 5.4,7.6 9.5,3.5 9.5,20.7 10.9,22.1 10.9,2.1 13,-0.1 15.1,2 
					15.1,21.8 16.5,20.7 16.5,3.5 20.6,7.6 20.6,16.6 24.1,13.1 21.9,11 21.9,8.9 26,13.1 19.2,19.9 19.2,8.3 17.9,6.9 17.9,21.4 
					13.7,25.5 13.7,2.8 13,2 12.3,2.8 12.3,25.5 8.1,21.2 8.1,6.9 6.8,8.2 6.8,19.8 0,13 				"/>
			</defs>
			<clipPath id="SVGID_00000043426122299571210510000006943697149345242029_">
				<use xlink:href="#SVGID_1_"  style="overflow:visible;"/>
			</clipPath>
			<g style="clip-path:url(#SVGID_00000043426122299571210510000006943697149345242029_);">
				
					<linearGradient id="SVGID_00000062152721720618074170000005177582259012061604_" gradientUnits="userSpaceOnUse" x1="3256.5818" y1="-4170.3364" x2="3256.9016" y2="-4170.3364" gradientTransform="matrix(82.62 0 0 82.62 -269043 344565.9375)">
					<stop  offset="0" style="stop-color:#C09E6C"/>
					<stop  offset="1" style="stop-color:#FAE7BA"/>
				</linearGradient>
				<rect y="-0.1" style="fill:url(#SVGID_00000062152721720618074170000005177582259012061604_);" width="26" height="25.6"/>
			</g>
		</g>
		<g>
			<path class="st2" d="M42.7,2.5v8h2.9v1.8h-1.8v6.5c0.6-0.4,1.2-0.9,1.7-1.4v2c-1.1,1.1-2.4,2.1-3.8,3l-0.6-2
				c0.4-0.2,0.7-0.4,1-0.6v-7.5h-0.8c-0.2,2.5-0.4,4.5-0.7,5.9c-0.4,1.6-0.9,3.1-1.7,4.4l-1.1-1.5c0.5-1.1,1-2.4,1.3-3.8
				c0.3-1.3,0.4-3,0.6-5.1h-1.6v-1.8H41V2.5H42.7L42.7,2.5z M40.5,8.9L39,9.5c-0.3-2-0.7-3.7-1-5.3l1.5-0.4
				C39.8,5.3,40.1,7,40.5,8.9z M45.5,4.4c-0.3,2-0.6,3.8-0.9,5.3l-1.4-1c0.4-1.4,0.7-3.1,1-4.9L45.5,4.4L45.5,4.4z M49.4,11.1
				c-0.2,0.4-0.3,0.8-0.5,1.1H52c-0.2-0.3-0.4-0.6-0.5-1l1.7-0.3c0.2,0.4,0.3,0.8,0.5,1.2h4.3v1.6h-4.4v1.1h3.9v1.6h-3.9v1.2h3.9
				v1.6h-3.9v1.3h4.7v1.6H48.2v0.8h-1.7v-7.2c-0.4,0.5-0.9,0.9-1.4,1.4l-0.5-1.9c0.7-0.6,1.3-1.3,1.9-2c0.5-0.6,1.1-1.5,1.6-2.7
				L49.4,11.1L49.4,11.1z M49.4,9c-0.8,0.9-1.9,1.7-3.1,2.4l-0.7-1.6c1.1-0.5,2.2-1.3,3.4-2.3C48.9,7.4,49.4,9,49.4,9z M51.4,3.1V11
				h-1.7V4.8h-3.9V3.1L51.4,3.1L51.4,3.1z M48.9,6.4L48,7.8c-0.7-0.7-1.3-1.2-2-1.6l0.8-1.2C47.5,5.5,48.2,5.9,48.9,6.4z M51.6,13.8
				h-3.5v1.1h3.5C51.6,14.9,51.6,13.8,51.6,13.8z M51.6,16.5h-3.5v1.2h3.5C51.6,17.7,51.6,16.5,51.6,16.5z M51.6,20.5v-1.3h-3.5v1.3
				C48.1,20.5,51.6,20.5,51.6,20.5z M55.4,9c-0.8,0.8-1.8,1.4-3,2l-0.6-1.6c1-0.4,2.1-1,3.2-1.9L55.4,9z M57.5,3.1V11h-1.8V4.8H52
				V3.1L57.5,3.1L57.5,3.1z M54.8,6.5L54,7.9c-0.6-0.7-1.3-1.2-1.9-1.6l0.8-1.2C53.5,5.5,54.2,6,54.8,6.5z"/>
			<path class="st2" d="M66.1,8.2v2c-0.1,1.9-0.4,3.5-0.6,4.9c-0.3,1.2-0.6,2.3-1.1,3.2c-0.5,1-1.2,2.1-2.3,3.2l-1.6-1.7
				c1.2-1.3,2.1-2.7,2.6-4.2c0.4-1.2,0.7-3,0.9-5.4h-3.1v-2L66.1,8.2L66.1,8.2z M77,3.1v2c-1.4,1.2-3,2.4-4.9,3.5v0.9h2.6v1.8h-2.6
				v1.6h3.2v1.8h-3.2v1.6h4v1.9h-4v2.7c0,0.5-0.2,0.9-0.4,1.3c-0.4,0.4-0.7,0.6-1.2,0.6h-3l-0.4-2.1c0.7,0.1,1.5,0.1,2.3,0.1
				c0.4,0,0.6-0.2,0.6-0.5v-2.1h-4.6v-1.9h4.6v-1.6h-3.7v-1.8h3.7v-1.6h-3.4V9.5h3.4V7.6C71.3,7,72.7,6.2,74.1,5h-10v-2L77,3.1
				L77,3.1z M80.9,9.1c-0.6,1.1-1.1,1.9-1.6,2.4c-0.4,0.5-0.9,1-1.5,1.6c0.1,0.5,0.2,1,0.4,1.4c0.5,1.7,1.4,3.5,2.8,5.4l-1.7,1.7
				c-1.5-2.4-2.5-4.6-3-6.7c-0.6-2.2-1-4.7-0.9-7.5h1.9c0,1.2,0.1,2.3,0.2,3.3c0.2-0.2,0.3-0.4,0.4-0.5c0.4-0.5,0.9-1.2,1.3-2.1
				L80.9,9.1L80.9,9.1z"/>
			<path class="st2" d="M94.9,4.1V2.5h2v1.6h5.3v3.2h1.2V9h-1.2v3.3h-5.3v1.4h5.5v1.6h-5.5v1.6h6.4v1.6h-6.4v1.9c0.3,0,0.6,0,0.9,0
				c2.6,0,4.5,0,5.8-0.2l-0.4,2.2c-6.9,0-11.1-0.2-12.6-0.5c-1.4-0.4-2.5-0.9-3.3-1.6c-0.1-0.1-0.2-0.1-0.2-0.2
				c-0.7,0.9-1.7,1.8-2.9,2.8l-1.1-2.1c1.2-0.8,2.1-1.6,2.7-2.6c-0.7-1.1-1.4-2.6-2.1-4.5l1.7-0.6c0.5,1.3,1,2.3,1.4,3.1
				c0-0.1,0.1-0.2,0.1-0.3c0.3-0.9,0.5-2.3,0.6-4h-3.8v-1.4c1.3-1.6,2.5-3.4,3.7-5.3h-4V3.6h6.3v1.9c-1.3,2-2.4,3.7-3.4,4.9h3.3
				c-0.1,2.5-0.3,4.5-0.8,6c-0.2,0.7-0.4,1.4-0.7,1.9c0.5,0.6,1.3,1.1,2.3,1.4c0.8,0.3,2.3,0.4,4.3,0.6v-1.8h-5.3v-1.6h5.3v-1.6
				h-4.3v-1.6h4.3v-1.4h-4.1v-1.6h4.1V8.9h-5.3V7.3h5.3V5.6h-4.1V4.1L94.9,4.1L94.9,4.1z M96.8,7.3h3.3V5.6h-3.3V7.3z M96.8,10.7
				h3.3V8.9h-3.3V10.7z"/>
			<path class="st2" d="M111.3,5h3.1v1.8H106V5h3.3c-0.3-0.8-0.6-1.6-1-2.3l2.1-0.2C110.7,3.3,111,4.1,111.3,5z M113.6,21.2h-4.8
				v1.6h-2v-8h6.8V21.2L113.6,21.2z M113.6,8.3v1.7h-6.7V8.3C106.8,8.3,113.6,8.3,113.6,8.3z M113.6,11.5v1.7h-6.7v-1.7H113.6z
				 M111.6,19.4v-2.8h-2.8v2.8H111.6z M123.5,8.2c0,0.5,0.2,0.8,0.8,0.8h1.7v2h-2.2c-0.8,0-1.5-0.2-1.9-0.5
				c-0.4-0.3-0.6-0.9-0.6-1.8V5H118c-0.1,1.5-0.2,2.5-0.4,3.2c-0.3,0.9-0.9,1.9-2.1,3.1l-1.6-1.4c0.9-1,1.5-1.8,1.7-2.4
				c0.2-0.5,0.3-2,0.3-4.3h7.6C123.5,3.1,123.5,8.2,123.5,8.2z M124.4,11.5V13c-0.6,2.3-1.5,4.2-2.7,5.8c1.2,0.8,2.8,1.5,4.7,2
				l-1.3,1.9c-2.1-0.8-3.7-1.5-5-2.4c-1.2,1-2.9,1.8-5,2.5l-1.2-1.8c1.9-0.6,3.4-1.3,4.5-2.1c-1.3-1.2-2.3-2.6-3.2-4.3l1.8-1
				c0.8,1.6,1.8,2.9,3,3.9l0,0c0.9-1.2,1.7-2.5,2.1-4.2h-7.5v-1.8L124.4,11.5L124.4,11.5z"/>
		</g>
	</g>
</g>
</svg>
