<?xml version="1.0" encoding="UTF-8"?>
<svg id="_圖層_2" data-name="圖層 2" xmlns="http://www.w3.org/2000/svg" viewBox="0 0 1671.71 151.28">
  <g id="_圖層_1-2" data-name="圖層 1">
    <g>
      <path d="M5.46,47.66c3.64-8.64,8.71-16.15,15.21-22.52,6.5-6.37,14.13-11.27,22.91-14.72,8.77-3.44,18.29-5.17,28.56-5.17s19.95,1.72,28.66,5.17c8.71,3.45,16.34,8.35,22.91,14.72,6.56,6.37,11.63,13.88,15.21,22.52,3.57,8.64,5.36,18.16,5.36,28.56s-1.79,19.79-5.36,28.56c-3.58,8.77-8.58,16.41-15.01,22.91-6.43,6.5-14.04,11.54-22.81,15.11s-18.42,5.36-28.95,5.36-20.18-1.79-28.95-5.36-16.41-8.61-22.91-15.11c-6.5-6.5-11.5-14.13-15.01-22.91C1.75,96.01,0,86.49,0,76.22s1.82-19.92,5.46-28.56Zm29.44,51.76c3.64,6.76,8.64,12.09,15.01,15.99,6.37,3.9,13.77,5.85,22.22,5.85s15.85-1.95,22.22-5.85c6.37-3.9,11.34-9.23,14.91-15.99,3.57-6.76,5.36-14.49,5.36-23.2s-1.75-16.44-5.26-23.2c-3.51-6.76-8.45-12.09-14.82-15.99-6.37-3.9-13.84-5.85-22.42-5.85s-15.86,1.95-22.22,5.85c-6.37,3.9-11.37,9.23-15.01,15.99-3.64,6.76-5.46,14.49-5.46,23.2s1.82,16.44,5.46,23.2Z" fill="#fff"/>
      <path d="M222.04,7.99V97.86c0,7.8,2.05,14.07,6.14,18.81,4.09,4.75,10.17,7.12,18.23,7.12s14.13-2.37,18.23-7.12c4.09-4.74,6.14-11.01,6.14-18.81V7.99h27.88V99.62c0,8.06-1.3,15.14-3.9,21.25-2.6,6.11-6.27,11.24-11.01,15.4-4.75,4.16-10.3,7.31-16.67,9.46-6.37,2.14-13.26,3.22-20.66,3.22s-14.49-1.07-20.86-3.22c-6.37-2.14-11.89-5.29-16.57-9.46-4.68-4.16-8.32-9.29-10.92-15.4-2.6-6.11-3.9-13.19-3.9-21.25V7.99h27.88Z" fill="#fff"/>
      <path d="M342.71,7.99h101.37v25.15h-36.84v111.31h-27.88V33.14h-36.65V7.99Z" fill="#fff"/>
      <path d="M510.46,111.9c3.44,3.77,7.24,6.7,11.4,8.77,4.16,2.08,8.64,3.12,13.45,3.12,5.59,0,10.14-1.43,13.65-4.29,3.51-2.86,5.26-6.76,5.26-11.7,0-4.29-1.07-7.73-3.22-10.33-2.14-2.6-5.33-4.9-9.55-6.92-4.22-2.01-9.39-4.19-15.5-6.53-3.25-1.17-6.99-2.76-11.21-4.78-4.22-2.01-8.22-4.61-11.99-7.8-3.77-3.18-6.89-7.08-9.36-11.7-2.47-4.61-3.7-10.17-3.7-16.67,0-7.8,1.98-14.52,5.95-20.18,3.96-5.65,9.36-10.01,16.18-13.06,6.82-3.05,14.46-4.58,22.91-4.58s16.21,1.46,22.52,4.39c6.3,2.92,11.57,6.63,15.79,11.11,4.22,4.48,7.51,9.13,9.84,13.94l-21.83,12.09c-1.82-3.25-4-6.2-6.53-8.87-2.53-2.66-5.43-4.81-8.67-6.43-3.25-1.62-6.95-2.44-11.11-2.44-5.46,0-9.55,1.27-12.28,3.8-2.73,2.53-4.09,5.49-4.09,8.87s1.1,6.34,3.31,8.87c2.21,2.53,5.59,4.94,10.14,7.21,4.55,2.28,10.26,4.58,17.16,6.92,4.42,1.56,8.67,3.51,12.77,5.85s7.8,5.17,11.11,8.48c3.31,3.31,5.91,7.21,7.8,11.7,1.88,4.48,2.83,9.65,2.83,15.5,0,6.63-1.3,12.54-3.9,17.74-2.6,5.2-6.17,9.58-10.72,13.16-4.55,3.58-9.65,6.31-15.3,8.19-5.65,1.88-11.6,2.83-17.84,2.83-8.32,0-16.08-1.59-23.29-4.78-7.21-3.18-13.49-7.5-18.81-12.96-5.33-5.46-9.49-11.37-12.48-17.74l19.88-14.04c2.86,5.07,6.01,9.49,9.45,13.26Z" fill="#fff"/>
      <path d="M621.87,7.99h101.37v25.15h-36.84v111.31h-27.88V33.14h-36.65V7.99Z" fill="#fff"/>
      <path d="M782.89,99.23l.58,6.24-17.93,38.99h-31.39L803.36,0l69.21,144.45h-31.58l-17.54-37.82,.39-7.02-20.47-47.37-20.47,46.98Zm-11.89-7.8h65.5l3.31,22.03h-72.13l3.31-22.03Z" fill="#fff"/>
      <path d="M1040.61,7.99V151.28l-97.08-91.43v84.61h-26.9V1.17l97.08,91.43V7.99h26.9Z" fill="#fff"/>
      <path d="M1127.94,7.99V144.45h-28.46V7.99h28.46Zm-10.53,136.46v-25.34h27.49c5.98,0,11.63-.81,16.96-2.44,5.33-1.62,10.01-4.19,14.04-7.7,4.03-3.51,7.18-7.96,9.46-13.35,2.27-5.39,3.41-11.86,3.41-19.4s-1.14-14-3.41-19.4c-2.28-5.39-5.43-9.84-9.46-13.35-4.03-3.51-8.71-6.07-14.04-7.7-5.33-1.62-10.98-2.44-16.96-2.44h-27.49V7.99h28.46c14.29,0,26.8,2.8,37.53,8.38,10.72,5.59,19.07,13.48,25.05,23.69,5.98,10.2,8.97,22.26,8.97,36.16s-2.99,25.96-8.97,36.16c-5.98,10.2-14.33,18.1-25.05,23.69-10.72,5.59-23.23,8.38-37.53,8.38h-28.46Z" fill="#fff"/>
      <path d="M1296.56,7.99V144.45h-28.27V7.99h28.27Z" fill="#fff"/>
      <path d="M1479.23,7.99V151.28l-97.08-91.43v84.61h-26.9V1.17l97.08,91.43V7.99h26.9Z" fill="#fff"/>
      <path d="M1604.38,71.54h67.26c.39,10.4-.81,20.21-3.61,29.44-2.8,9.23-7.15,17.38-13.06,24.47-5.92,7.08-13.23,12.64-21.93,16.67-8.71,4.03-18.65,6.04-29.83,6.04-10.53,0-20.24-1.75-29.14-5.26-8.9-3.51-16.64-8.45-23.2-14.82-6.56-6.37-11.63-13.97-15.21-22.81-3.58-8.84-5.36-18.52-5.36-29.05s1.85-20.18,5.56-28.95,8.87-16.28,15.5-22.52,14.43-11.04,23.39-14.43c8.97-3.38,18.71-5.07,29.24-5.07,9.36,0,17.77,1.3,25.25,3.9,7.47,2.6,14.1,6.21,19.88,10.82,5.78,4.61,10.75,10.11,14.91,16.47l-23.78,13.84c-3.38-5.98-8.09-10.82-14.13-14.52-6.04-3.7-13.42-5.56-22.13-5.56-8.19,0-15.66,1.85-22.42,5.56-6.76,3.7-12.12,9-16.08,15.89-3.97,6.89-5.95,15.08-5.95,24.56s1.95,17.58,5.85,24.66c3.9,7.08,9.19,12.57,15.89,16.47,6.69,3.9,14.26,5.85,22.71,5.85,5.59,0,10.59-.75,15.01-2.24,4.42-1.49,8.22-3.61,11.4-6.33,3.18-2.73,5.88-5.85,8.09-9.36,2.21-3.51,3.9-7.34,5.07-11.5h-39.18v-22.22Z" fill="#fff"/>
    </g>
  </g>
</svg>