<?xml version="1.0" encoding="UTF-8"?>
<svg id="_圖層_2" data-name="圖層 2" xmlns="http://www.w3.org/2000/svg" xmlns:xlink="http://www.w3.org/1999/xlink" viewBox="0 0 567 1385">
  <defs>
    <style>
      .cls-1 {
        stroke: #19446b;
      }

      .cls-1, .cls-2, .cls-3, .cls-4, .cls-5, .cls-6, .cls-7, .cls-8, .cls-9, .cls-10 {
        fill: none;
      }

      .cls-1, .cls-2, .cls-3, .cls-4, .cls-5, .cls-6, .cls-7, .cls-9, .cls-10 {
        stroke-miterlimit: 10;
      }

      .cls-11 {
        fill: #19446b;
        fill-rule: evenodd;
      }

      .cls-12, .cls-13 {
        font-size: 28px;
      }

      .cls-12, .cls-13, .cls-14 {
        font-family: NotoSerifTC-Medium-90ms-RKSJ-H, 'Noto Serif TC';
        font-weight: 500;
      }

      .cls-2 {
        stroke: #56869b;
      }

      .cls-15 {
        fill: #c39bb7;
      }

      .cls-16 {
        letter-spacing: .1em;
      }

      .cls-17 {
        fill: #883972;
      }

      .cls-18 {
        clip-path: url(#clippath-2);
      }

      .cls-19 {
        letter-spacing: -.15em;
      }

      .cls-20 {
        letter-spacing: .08em;
      }

      .cls-21 {
        fill: #680554;
      }

      .cls-22 {
        fill: #226eb2;
      }

      .cls-3 {
        stroke: #226eb2;
      }

      .cls-4 {
        stroke: #175585;
      }

      .cls-23 {
        letter-spacing: .09em;
      }

      .cls-24 {
        clip-path: url(#clippath-1);
      }

      .cls-25 {
        clip-path: url(#clippath-4);
      }

      .cls-5 {
        stroke: #478cc2;
      }

      .cls-26 {
        fill: #a56799;
      }

      .cls-27 {
        fill: #56869b;
      }

      .cls-6 {
        stroke: #c39bb7;
      }

      .cls-7 {
        stroke: #883972;
      }

      .cls-28 {
        clip-path: url(#clippath);
      }

      .cls-29 {
        clip-path: url(#clippath-3);
      }

      .cls-13, .cls-30 {
        letter-spacing: .1em;
      }

      .cls-9 {
        stroke: #a56799;
      }

      .cls-10 {
        stroke: #680554;
      }

      .cls-14 {
        font-size: 32px;
        letter-spacing: .1em;
      }

      .cls-31 {
        fill: #175585;
      }

      .cls-32 {
        fill: #478cc2;
      }
    </style>
    <clipPath id="clippath">
      <rect class="cls-8" x="418.71" y="910" width="40.67" height="40.67"/>
    </clipPath>
    <clipPath id="clippath-1">
      <rect class="cls-8" x="111.41" y="59.22" width="30.18" height="34.82"/>
    </clipPath>
    <clipPath id="clippath-2">
      <rect class="cls-8" x="427.77" y="53.22" width="36.33" height="34.78"/>
    </clipPath>
    <clipPath id="clippath-3">
      <rect class="cls-8" x="99.84" y="915.66" width="45.18" height="32.61"/>
    </clipPath>
    <clipPath id="clippath-4">
      <rect class="cls-8" x="432.7" y="335.51" width="25.47" height="34.64"/>
    </clipPath>
  </defs>
  <g id="_圖層_1-2" data-name="圖層 1">
    <g class="cls-28">
      <path class="cls-22" d="M430,910c.54,.28,1.14,.51,1.61,.86,.32,.25,.59,.57,.78,.94,.19,.37,.29,.77,.29,1.18,.1,1.86,.2,3.72,.66,5.54,.17,.71,.36,1.4,.56,2.1,.29,1,.1,2.08-.55,2.9-1.18,1.51-2.33,3.06-3.49,4.61-.03,.06-.05,.12-.05,.18s0,.13,.03,.19c2,3.76,4.61,6.98,8.22,9.33,.9,.58,1.83,1.11,2.73,1.68,.08,.06,.17,.09,.27,.08,.1,0,.19-.05,.25-.12,1.53-1.17,3.03-2.34,4.58-3.48,.39-.29,.83-.48,1.3-.57,.47-.09,.95-.07,1.41,.05,1.32,.3,2.64,.69,3.97,.92,1.12,.19,2.24,.28,3.36,.28,1.68,0,3.08,1.08,3.39,2.65,.02,.05,.03,.1,.07,.14v8.42c-.03,.08-.05,.15-.08,.22-.44,1.65-1.64,2.58-3.37,2.55-1.2-.02-2.41-.06-3.59-.18-2.46-.24-4.86-.73-7.2-1.46-6.58-2.02-12.47-5.82-17.01-10.99-4.03-4.52-6.88-9.96-8.32-15.84-.71-2.89-1.08-5.85-1.08-8.83-.02-.83,.27-1.63,.81-2.26,.53-.57,1.22-.95,1.97-1.11h8.51Z"/>
    </g>
    <g>
      <g class="cls-24">
        <g>
          <path class="cls-21" d="M130.55,59.24v5.72c.02,2.65,2.02,4.5,4.87,4.51h6.16v21.47c0,1.82-1.33,3.07-3.28,3.07h-23.6c-1.96,0-3.29-1.25-3.29-3.06v-28.69c0-1.79,1.3-3.05,3.21-3.06h15.6c.08,0,.17,.01,.33,.03Zm-4.05,19.1h8.56c.2,0,.4,0,.59-.03,.38-.05,.73-.24,.97-.52,.24-.28,.35-.64,.31-1-.06-.8-.71-1.33-1.65-1.33h-17.6c-.13,0-.25,.02-.38,.04-.22,.04-.43,.12-.61,.23-.18,.12-.34,.27-.45,.45-.11,.18-.18,.38-.2,.59-.02,.21,0,.42,.08,.61,.23,.61,.81,.96,1.64,.96h8.73Zm.05,4.84h-6.86c-.75,0-1.51-.02-2.26,.01-.21,.01-.42,.07-.61,.17-.19,.09-.35,.22-.48,.38-.13,.16-.22,.34-.27,.53-.05,.19-.05,.39-.01,.59,.17,.74,.77,1.19,1.66,1.19h17.6c.37,.01,.74-.1,1.03-.31,.29-.21,.49-.52,.56-.86,.18-.96-.51-1.7-1.59-1.7-2.92,0-5.85,0-8.78,0Zm-5.38-13.12h3.49c.23,0,.45-.02,.67-.07,.35-.11,.65-.33,.84-.63,.19-.3,.26-.65,.19-.99-.06-.34-.26-.65-.55-.86-.29-.22-.65-.33-1.02-.32h-7.07c-1,0-1.73,.63-1.7,1.46,0,.2,.05,.39,.14,.57,.09,.18,.22,.34,.37,.48s.34,.24,.55,.3c.2,.06,.42,.09,.63,.08,1.15-.03,2.3-.01,3.45-.01Z"/>
          <path class="cls-21" d="M133.67,60.73l6.22,5.81s0,.02-.03,.02c-1.58,0-3.15,.02-4.73,0-.75,0-1.43-.56-1.45-1.21-.04-1.52-.01-3.05-.01-4.63Z"/>
        </g>
      </g>
      <circle class="cls-10" cx="126.5" cy="123.5" r="123"/>
      <text class="cls-14" transform="translate(40.34 141.74)"><tspan x="0" y="0">保證合約書</tspan><tspan x="35.2" y="48">公開化</tspan></text>
    </g>
    <g>
      <g class="cls-18">
        <path class="cls-17" d="M427.77,70.51v-.77c.28-.38,.51-.81,.86-1.12,5.25-4.78,10.51-9.56,15.77-14.32,1.01-.91,2.05-.91,3.09-.03,4.45,3.86,8.91,7.72,13.36,11.57,.89,.77,1.78,1.54,2.66,2.32,.54,.48,.75,1.13,.47,1.78-.17,.43-.44,.82-.77,1.14-.33,.32-.73,.58-1.17,.74-.16,.06-.34,.08-.51,.04-.17-.04-.32-.12-.44-.25-.18-.17-.38-.32-.62-.53v12.67c0,.97,.01,1.94,0,2.91,0,.45-.18,.88-.51,1.2-.32,.32-.76,.5-1.21,.5-2.27,.02-4.54,.01-6.8,0-.36,0-.71-.12-.99-.34-.28-.22-.48-.53-.55-.88-.06-.27-.09-.55-.08-.83v-10.7h-8.09v10.81c0,1.21-.74,1.94-1.97,1.94h-5.89c-1.37,0-2.06-.69-2.06-2.06v-15.45c-.42,.37-.78,.69-1.14,1-.31,.28-.72,.44-1.14,.45-.42,0-.84-.14-1.16-.41-.49-.36-.87-.85-1.1-1.42Z"/>
      </g>
      <circle class="cls-7" cx="443.5" cy="123.5" r="123"/>
      <text class="cls-14" transform="translate(374.39 141.74)"><tspan x="0" y="0">保證產權</tspan><tspan x="0" y="48">絕對清楚</tspan></text>
    </g>
    <g>
      <g>
        <path class="cls-17" d="M123.94,341.38c0,.43,.01,.86,0,1.29,0,.14-.06,.28-.14,.38-3.29,3.53-6.58,7.05-9.88,10.56l-1.63,1.74c.02-.31,.02-.62,0-.93-.09-.74,.17-1.22,.64-1.72,3.42-3.6,6.81-7.24,10.22-10.87,.15-.16,.31-.3,.46-.45h.33Z"/>
        <path class="cls-17" d="M125.27,341.38c.78,.81,1.57,1.62,2.34,2.45,2.9,3.09,5.8,6.18,8.71,9.27,.1,.09,.17,.2,.22,.33,.05,.13,.07,.27,.06,.41-.02,.47,0,.94,0,1.49-.15-.15-.24-.24-.33-.34-3.58-3.83-7.15-7.68-10.75-11.49-.43-.45-.67-.9-.57-1.56,.01-.19,.02-.39,0-.58h.33Z"/>
        <path class="cls-17" d="M110.27,355.54l.99-1.03v19.82h-.99v-18.79Z"/>
        <path class="cls-17" d="M129.48,362.55h-10.1v-8.21h10.1v8.21Z"/>
        <path class="cls-17" d="M119.39,366.11h10.11c0,.1,.01,.2,.01,.31v5.24c0,.27-.07,.34-.3,.34-3.19,0-6.38,0-9.58,0-.15,0-.28,.02-.28-.25,0-1.82,0-3.67,0-5.5,.01-.05,.02-.09,.04-.14Z"/>
        <path class="cls-17" d="M116.34,352.63v9.91h-4.04c0-.1-.02-.18-.02-.27v-5.08c0-.14,.05-.28,.13-.39,1.26-1.36,2.52-2.71,3.78-4.05,.04-.03,.07-.07,.14-.13Z"/>
        <path class="cls-17" d="M136.57,362.55h-4.03v-9.9c.07,.05,.12,.09,.16,.13,1.24,1.33,2.48,2.66,3.72,4,.1,.1,.16,.25,.17,.41,.01,1.71,0,3.41,0,5.11,0,.07-.01,.15-.02,.25Z"/>
        <path class="cls-17" d="M136.58,373.18v1.13h-24.27v-1.13h24.27Z"/>
        <path class="cls-17" d="M112.3,366.11h4.04v5.86c-.08,.01-.15,.02-.23,.03h-3.56c-.17,0-.27-.03-.27-.28,0-1.81,0-3.62,0-5.43,0-.05,.01-.1,.02-.18Z"/>
        <path class="cls-17" d="M132.53,366.11h4.04c0,.12,.01,.22,.01,.32v5.21c0,.28-.06,.37-.31,.36-1.16-.02-2.32,0-3.48,0-.09,0-.17,0-.28-.02v-5.87Z"/>
        <path class="cls-17" d="M118.36,350.45v21.51h-1v-20.14c0-.1,0-.2,.04-.28,.03-.09,.08-.17,.15-.23,.26-.26,.51-.53,.81-.85Z"/>
        <path class="cls-17" d="M130.53,350.46c.33,.35,.64,.66,.92,.99,.06,.1,.08,.23,.07,.35v20.16h-.99v-21.51Z"/>
        <path class="cls-17" d="M137.61,354.49c.32,.34,.6,.63,.87,.94,.07,.08,.11,.19,.11,.3v18.46s0,.07-.02,.11h-.97v-19.81Z"/>
        <path class="cls-17" d="M129.51,353.14h-10.14v-1c0-.06,.08-.14,.14-.17,.06-.01,.13-.01,.19,0h9.46c.28,0,.38,.08,.35,.41-.01,.26,0,.51,0,.77Z"/>
        <path class="cls-17" d="M129.49,363.75v1.16h-10.1v-1.16h10.1Z"/>
        <path class="cls-17" d="M122.92,345.63v5.14h-3.55v-1.29c0-.08,.04-.16,.1-.21,1.13-1.2,2.25-2.41,3.38-3.61,.01-.02,.03-.02,.08-.02Z"/>
        <path class="cls-17" d="M125.96,345.57l1.46,1.57c.64,.68,1.28,1.35,1.92,2.05,.1,.13,.16,.29,.17,.47,.02,.37,0,.74,0,1.13h-3.55v-5.21Z"/>
        <path class="cls-17" d="M124.44,343.97c.17,.1,.31,.27,.41,.46,.09,.2,.13,.42,.11,.65-.03,1.78-.01,3.55-.01,5.33v.36h-1.01v-.39c0-1.77,.02-3.53-.01-5.3-.02-.22,.02-.45,.11-.65,.09-.2,.23-.36,.4-.47Z"/>
        <path class="cls-17" d="M116.34,363.75v1.16h-4.03v-1.16h4.03Z"/>
        <path class="cls-17" d="M132.53,364.91v-1.17h4.03v1.17h-4.03Z"/>
      </g>
      <g>
        <circle class="cls-7" cx="126.5" cy="404.5" r="123"/>
        <text class="cls-14" transform="translate(53.94 422.74)"><tspan x="0" y="0">結構保固</tspan><tspan x="32.03" y="48">15年</tspan></text>
      </g>
    </g>
    <g>
      <g>
        <circle class="cls-9" cx="126.5" cy="692.5" r="123"/>
        <text class="cls-14" transform="translate(53.94 710.74)"><tspan x="0" y="0">中庭景觀</tspan><tspan x="-27.98" y="48">設備保固1年</tspan></text>
      </g>
      <path class="cls-26" d="M142.27,653.3v3.59h-3.57v5.4h-7.16v-5.37h-3.55v5.37h-7.15v-5.37h-3.55v5.38h-7.17v-5.4h-3.53v-3.61h3.51v-7.2h-3.51v-3.63h3.54c0-1.01,.02-1.99,0-2.96-.02-.42,.1-.83,.35-1.17,.75-1.11,1.47-2.22,2.21-3.32l1.02-1.54c.05,.07,.09,.11,.12,.16,1.12,1.7,2.24,3.39,3.36,5.1,.07,.13,.11,.28,.11,.43,.01,.78,0,1.55,0,2.32v.98h3.56v-3.28c0-.2,.06-.39,.16-.55,1.06-1.61,2.12-3.23,3.19-4.83,.06-.1,.13-.18,.22-.31,.09,.13,.17,.22,.24,.33,.86,1.3,1.67,2.63,2.58,3.88,.57,.72,.85,1.64,.76,2.56-.06,.72-.01,1.45-.01,2.19h3.55v-3.22c0-.22,.07-.43,.19-.61,.62-.98,1.27-1.94,1.9-2.9,.49-.74,.98-1.48,1.48-2.25,.09,.14,.16,.24,.23,.35,.91,1.38,1.8,2.79,2.75,4.15,.45,.58,.66,1.31,.61,2.05-.06,.71-.01,1.43,0,2.15,0,.1,.01,.2,.02,.32h3.54v3.59l-2.75,.03h-.79v7.19h.51l3.03,.02Zm-21.44-7.18h-3.51v7.15h3.51v-7.15Zm10.69,7.15v-7.16h-3.51v7.16h3.51Z"/>
    </g>
    <circle class="cls-2" cx="443.5" cy="692.5" r="123"/>
    <text class="cls-12" transform="translate(350.69 703.74)"><tspan class="cls-30"><tspan x="0" y="0">絕不使用輻射</tspan></tspan><tspan class="cls-30" x="7" y="40">鋼</tspan><tspan class="cls-19" x="37.8" y="40">筋、</tspan><tspan class="cls-16" x="85.4" y="40">含海砂</tspan><tspan class="cls-30"><tspan x="46.2" y="80">之砂土</tspan></tspan></text>
    <g>
      <path class="cls-27" d="M456.53,631l-1.99,1.71c-5.22,4.45-10.45,8.9-15.66,13.35-.22,.2-.5,.31-.79,.3-3.26,0-6.51,0-9.77,0h-.49s1.04-.85,1.04-.85c5.89-4.75,11.8-9.5,17.69-14.25,.22-.18,.47-.27,.74-.26h8.75s.49,0,.49,0Z"/>
      <path class="cls-27" d="M438.73,647.64v2.56h-2.64s-.54,0-.54,0c-.15,.63-.32,.66-.47,.72-.15,.06-.29,.16-.41,.28-.12,.12-.2,.27-.27,.43-.05,.16-.08,.33-.8,.5v4.51c.73,.81,2.01,1.24,2.01,1.24h3.11v3.84h-12.8v-3.78s.67-.02,.77-.06h2.89c.84,.05,1.32-.43,1.46-1.29v-4.42c-.14-.84-1.43-1.97-1.43-1.97h-2.89s-.8,0-.8,0v-2.56h12.8Z"/>
      <path class="cls-27" d="M436.17,656.03v-4.55h.38c.99,0,2,0,3,0,.24,0,.46-.07,.64-.22,4.52-3.79,9.05-7.58,13.59-11.36,.09-.07,.18-.14,.31-.25v.36c.01,.76,.49,1.23,1.24,1.23h1.48s-1.95,1.64-1.95,1.64c-5.12,4.27-10.24,8.55-15.35,12.82-.24,.22-.57,.34-.89,.32-.8-.02-1.62,0-2.46,0Z"/>
      <path class="cls-27" d="M440.01,649.67c0-1.17,0-2.28,0-3.38,0-.09,.11-.2,.2-.27,4.98-4.24,9.96-8.48,14.93-12.72l2.79-2.37v1.1c0,.68,0,1.37,0,2.06,.01,.11,0,.21-.05,.31-.04,.1-.11,.18-.19,.24-3.65,3.1-7.29,6.2-10.94,9.31-2.16,1.85-4.33,3.7-6.5,5.54-.06,.05-.13,.1-.24,.18Z"/>
      <path class="cls-27" d="M440.01,660.32c0-1.18,0-2.28,0-3.36,.04-.12,.11-.23,.23-.29,2.83-2.43,5.68-4.85,8.52-7.27l8.94-7.61,.24-.19v1.85c0,.44-.01,.87,0,1.3,0,.1-.01,.21-.06,.3-.04,.09-.11,.17-.19,.23-4.85,4.12-9.69,8.24-14.52,12.36l-3.15,2.69Z"/>
    </g>
    <g>
      <g>
        <ellipse class="cls-5" cx="124.19" cy="976.5" rx="122.69" ry="123"/>
        <text class="cls-13" transform="translate(46.84 997.74)"><tspan x="0" y="0">建築施工照</tspan><tspan x="-15.4" y="40">追蹤工程進度</tspan></text>
      </g>
      <g class="cls-29">
        <g>
          <path class="cls-32" d="M113.94,919.81c.31,2.8,.63,5.5,.91,8.2,.12,1.2,.24,2.41,.4,3.61,.1,.96,.85,1.6,1.71,1.48,.94-.13,1.48-.93,1.36-1.92-.3-2.54-.58-5.1-.85-7.65-.21-1.87-.4-3.75-.63-5.62-.16-1.24,.7-2.25,1.95-2.25h8.64c1.07,0,1.89,.88,1.79,1.95-.17,1.86-.4,3.71-.6,5.57-.24,2.2-.47,4.39-.71,6.58-.07,.49-.1,.98-.17,1.46-.14,.97,.42,1.75,1.33,1.89,.21,.03,.42,.02,.63-.04,.21-.06,.4-.16,.56-.29,.16-.14,.3-.3,.4-.49,.09-.19,.14-.4,.16-.61,.23-1.86,.4-3.71,.61-5.57,.23-2.06,.45-4.12,.7-6.27,2.82,1.75,5.18,4.2,6.82,7.12,2.41,4.23,3.05,8.97,2.72,12.27h-37.24c-.28-3.67,.38-7.34,1.94-10.67,1.62-3.61,4.27-6.65,7.62-8.73Z"/>
          <path class="cls-32" d="M122.99,948.27h-20.11c-.61-.35-1.19-.56-1.64-.96-.47-.4-.76-.95-.83-1.56-.07-.61,.09-1.22,.43-1.71,.36-.49,.89-.84,1.46-.97,.2-.04,.4-.06,.6-.23h40.23c.33,.18,.63,.25,.94,.37,.29,.12,.54,.31,.78,.53,.22,.23,.4,.5,.52,.8,.11,.3,.18,.62,.16,.94,0,.32-.05,.64-.18,.93-.13,.3-.31,.56-.52,.79-.23,.23-.51,.41-.8,.53-.29,.12-.61,.18-.92,.55h-20.11Z"/>
        </g>
      </g>
    </g>
    <circle class="cls-3" cx="439.5" cy="976.5" r="123"/>
    <text class="cls-14" transform="translate(345.95 1000.74)"><tspan x="0" y="0">0800免付費</tspan><tspan x="23.94" y="48">服務電話</tspan></text>
    <g>
      <g>
        <ellipse class="cls-4" cx="123.19" cy="1261.5" rx="122.69" ry="123"/>
        <text class="cls-12" transform="translate(51.56 1282.74)"><tspan class="cls-30" x="0" y="0">專屬</tspan><tspan class="cls-20" x="61.6" y="0">L</tspan><tspan class="cls-16" x="82.04" y="0">I</tspan><tspan class="cls-23" x="96.21" y="0">N</tspan><tspan class="cls-16" x="121.27" y="0">E</tspan><tspan class="cls-30"><tspan x="9.67" y="40">線上服務</tspan></tspan></text>
      </g>
      <path class="cls-31" d="M123.82,1198.69c11.94,0,21.56,7.79,21.56,17.48,0,4.72-2.33,8.86-5.97,12.13-5.91,5.85-16.09,11.76-17.16,11.32-1.76-.69,1.32-4.46,.06-6.1-.19-.25-.88-.19-2.14-.38-10.37-1.38-17.79-8.24-17.79-17.04,0-9.68,9.56-17.41,21.44-17.41h0Zm-12.26,23.26h3.65c.63,0,1.01-.5,1.01-1.13,0-.44-.31-1.01-1.13-1.01h-2.96c-.25,0-.25-.25-.25-1.13v-6.35c0-.57-.38-1.13-1.07-1.13-.63,0-1.07,.5-1.07,1.13v7.67c0,1.7,.82,1.95,1.82,1.95Zm8.23-.88v-8.74c0-.57-.44-1.13-1.13-1.13-.57,0-1.07,.5-1.07,1.13v8.74c0,.57,.44,1.01,1.13,1.01,.57,0,1.07-.44,1.07-1.01Zm10.31-1.19v-7.67c0-.57-.44-1.01-1.13-1.01-.5,0-1.07,.31-1.07,1.01v5.53l-3.65-5.09c-.5-.88-1.13-1.45-1.89-1.45-.94,0-1.01,.75-1.01,1.82v8.05c0,.57,.44,1.01,1.07,1.01,.57,0,1.07-.38,1.07-1.01v-5.72l3.65,5.09c.82,1.07,1.01,1.64,2.01,1.64,.69,0,.94-.63,.94-2.2h0Zm7.04-4.34h-3.21v-1.82c0-.19,.06-.44,.38-.44h2.83c.69,0,1.13-.38,1.13-1.07,0-.82-.63-1.07-1.19-1.07h-3.65c-1.13,0-1.7,.75-1.7,1.76v7.1c0,1.26,.5,1.95,1.7,1.95h3.71c.82,0,1.13-.5,1.13-1.13,0-.82-.63-1.07-1.13-1.07h-2.77c-.25,0-.44-.19-.44-.38v-1.76h3.33c.82,0,.94-.63,.94-1.07,0-.63-.5-1.01-1.07-1.01Z"/>
    </g>
    <circle class="cls-1" cx="438.5" cy="1261.5" r="123"/>
    <text class="cls-13" transform="translate(377.49 1285.74)"><tspan x="0" y="0">免費年度</tspan><tspan x="0" y="40">社區健檢</tspan></text>
    <g>
      <circle class="cls-6" cx="443.5" cy="404.5" r="123"/>
      <text class="cls-14" transform="translate(374.39 422.74)"><tspan x="0" y="0">防水保固</tspan><tspan x="42.42" y="48">5年</tspan></text>
      <g class="cls-25">
        <g>
          <path class="cls-15" d="M457.89,338.19c-.16-.14-.37-.21-.57-.18-.21,.02-.4,.13-.53,.3l-12,15.31c-.13,.17-.2,.39-.18,.6,.02,.22,.12,.42,.28,.56,.16,.14,.37,.21,.57,.19,.21-.02,.4-.13,.53-.3l12-15.31c.07-.08,.12-.18,.15-.29,.03-.1,.04-.21,.03-.32,0-.11-.04-.21-.09-.31-.05-.1-.12-.18-.2-.25Z"/>
          <path class="cls-15" d="M454.09,348.11c-.3-.55-.6-1.1-.91-1.64l-6.84,8.73c-.11,.15-.26,.27-.41,.36-.16,.09-.33,.15-.51,.16-.18,.02-.36,0-.53-.06-.17-.06-.33-.15-.47-.27-.14-.12-.25-.27-.34-.44-.08-.17-.14-.35-.15-.54s0-.38,.06-.56c.05-.18,.14-.35,.26-.5l7.42-9.46c-1.41-2.27-2.92-4.47-4.49-6.64-.44-.6-.92-1.17-1.37-1.75h-.5c-.13,.12-.24,.25-.35,.39-.15,.22-.27,.49-.43,.72-1.7,2.52-3.45,5.02-5.11,7.57-1.69,2.59-3.22,5.28-4.41,8.17-.94,2.3-1.31,4.64-.78,7.14,.37,1.76,1.12,3.41,2.18,4.83l-3.5,4.46c-.12,.17-.17,.38-.15,.59,.02,.21,.12,.4,.28,.54,.16,.14,.35,.2,.55,.19,.2-.01,.39-.11,.52-.27l3.35-4.28c2.67,2.73,6.52,4.1,10.35,3.25,3.7-.82,6.45-3.04,8.14-6.6,1.3-2.74,1.61-5.6,.62-8.55-.66-1.93-1.48-3.79-2.46-5.57Z"/>
        </g>
      </g>
    </g>
    <path class="cls-11" d="M416.29,1211.15v12.62h14.76v14.19h11.48v-14.19h14.76v-12.62h-14.76v-14.19h-11.48v14.19h-14.76Z"/>
  </g>
</svg>